<svg width="119" height="45" viewBox="0 0 119 45" fill="none" xmlns="http://www.w3.org/2000/svg">
<g clip-path="url(#clip0)">
<path d="M25.6786 28.3301C25.6786 32.0308 22.8145 33.9874 18.5173 33.9874H10.9011V39.3818H7.08154V22.6729H18.515C22.8122 22.6729 25.6786 24.6798 25.6786 28.3301ZM21.7859 28.3553C21.7859 26.4467 20.3527 25.8729 18.2064 25.8729H10.9011V30.8376H18.2064C20.355 30.8376 21.7859 30.2639 21.7859 28.3553Z" fill="#39C0FA"/>
<path d="M47.1146 22.6729V31.5051C47.1146 36.5178 43.7957 39.9076 37.7338 39.9076C31.6697 39.9076 28.353 36.5178 28.353 31.5051V22.6729H32.1726V31.2194C32.1726 34.5611 34.1292 36.5658 37.7338 36.5658C41.3385 36.5658 43.2951 34.5611 43.2951 31.2194V22.6729H47.1146Z" fill="#39C0FA"/>
<path d="M70.2695 34.7989C70.2695 37.7589 67.7391 39.3818 63.7299 39.3818H51.293V22.6729H62.7744C66.7837 22.6729 69.314 24.2477 69.314 26.945C69.314 28.8536 68.0728 30.4788 65.5905 30.6456C68.2168 30.7896 70.2695 32.1497 70.2695 34.7989ZM55.0645 29.4525H62.155C64.2327 29.4525 65.5219 29.1187 65.5219 27.5667C65.5219 26.0398 64.2327 25.6809 62.155 25.6809H55.0645V29.4525ZM66.3539 34.3691C66.3539 32.6754 65.0899 32.3645 62.9413 32.3645H55.0645V36.3738H62.9413C65.0899 36.3761 66.3539 36.04 66.3539 34.3691Z" fill="#39C0FA"/>
<path d="M89.2231 36.088V39.3818H73.5884V22.6729H77.4079V36.088H89.2231Z" fill="#39C0FA"/>
<path d="M91.8975 39.3818V22.6729H95.717V39.3818H91.8975Z" fill="#39C0FA"/>
<path d="M115.171 33.8936L118.657 35.6353C117.082 37.9988 113.859 39.9074 109.491 39.9074C103.212 39.9074 99.1318 36.5885 99.1318 31.0272C99.1318 25.4659 103.214 22.147 109.658 22.147C113.859 22.147 117.082 24.0807 118.609 26.3962L115.1 28.138C113.907 26.2751 112.092 25.4408 109.61 25.4408C105.646 25.4408 103.022 27.3494 103.022 31.0272C103.022 34.705 105.649 36.6136 109.61 36.6136C112.092 36.6136 113.93 35.8022 115.171 33.8936Z" fill="#39C0FA"/>
<path d="M26.0119 13.1523C24.6268 15.7535 21.285 17.7125 16.654 17.7125C10.1852 17.7125 6.36572 14.2998 6.36572 8.85737C6.36572 3.41494 10.1852 0 16.5831 0C20.6655 0 23.4107 1.5269 25.0816 3.4858L23.3399 4.70412C21.8335 2.81607 19.6141 1.8629 16.5831 1.8629C11.5933 1.8629 8.41835 4.22639 8.41835 8.85737C8.41835 13.4883 11.6161 15.8518 16.7248 15.8518C20.0438 15.8518 22.7638 14.8735 24.005 12.558V10.3865H16.4163V8.52365H26.0119V13.1523Z" fill="white"/>
<path d="M28.9971 8.85508C28.9971 3.41266 32.8143 0 39.1642 0C45.5141 0 49.3336 3.41266 49.3336 8.85508C49.3336 14.2975 45.5141 17.7102 39.1642 17.7102C32.8143 17.7102 28.9971 14.2975 28.9971 8.85508ZM47.281 8.85508C47.281 4.36811 44.0832 1.86062 39.1642 1.86062C34.2475 1.86062 31.0474 4.36811 31.0474 8.85508C31.0474 13.3421 34.2452 15.8495 39.1642 15.8495C44.0832 15.8495 47.281 13.3443 47.281 8.85508Z" fill="white"/>
<path d="M53.6309 17.2095V0.500488H55.6355V17.2095H53.6309Z" fill="white"/>
<path d="M78.9344 0.500488V17.2095H77.1675L63.1329 3.05598V17.2118H61.1763V0.500488H63.3478L76.9778 14.2746V0.500488H78.9344Z" fill="white"/>
<path d="M102.878 13.1523C101.492 15.7535 98.1507 17.7125 93.5197 17.7125C87.051 17.7125 83.2314 14.2998 83.2314 8.85737C83.2314 3.41494 87.051 0 93.4488 0C97.5312 0 100.276 1.5269 101.947 3.4858L100.206 4.70412C98.7015 2.81836 96.4821 1.8629 93.4511 1.8629C88.4613 1.8629 85.2864 4.22639 85.2864 8.85737C85.2864 13.4883 88.4841 15.8518 93.5928 15.8518C96.9118 15.8518 99.6319 14.8735 100.873 12.558V10.3865H93.282V8.52365H102.878V13.1523Z" fill="white"/>
<path d="M0.665159 44.3347V25.3765H0V44.3347V44.9998H0.665159H24.6292V44.3347H0.665159Z" fill="#FA9623"/>
<path d="M109.374 0.0595703H118.462V9.1478L109.374 0.0595703Z" fill="#FA9623"/>
</g>
<defs>
<clipPath id="clip0">
<rect width="118.657" height="45" fill="white"/>
</clipPath>
</defs>
</svg>
